<?xml version="1.0" encoding="utf-8"?>
<!-- Generator: Adobe Illustrator 27.4.0, SVG Export Plug-In . SVG Version: 6.00 Build 0)  -->
<svg version="1.1" id="Layer_1" xmlns="http://www.w3.org/2000/svg" xmlns:xlink="http://www.w3.org/1999/xlink" x="0px" y="0px"
	 viewBox="0 0 32 32" style="enable-background:new 0 0 32 32;" xml:space="preserve">
<style type="text/css">
	.st0{fill:url(#SVGID_1_);}
	.st1{fill:url(#SVGID_00000181799536415728459740000016626191873562909836_);}
	.st2{fill:url(#SVGID_00000095300867563976026930000004253685787261016500_);}
	.st3{opacity:0.68;fill:url(#SVGID_00000066509948110910028620000012277057682743974792_);}
	.st4{opacity:0.68;fill:url(#SVGID_00000003091417207773807820000000108855179832555180_);}
	.st5{fill:#0C6A9E;}
</style>
<g>
	<linearGradient id="SVGID_1_" gradientUnits="userSpaceOnUse" x1="6.0463" y1="16" x2="31.3996" y2="16">
		<stop  offset="0.6446" style="stop-color:#72B51A"/>
		<stop  offset="1" style="stop-color:#0C6A9E"/>
	</linearGradient>
	<path class="st0" d="M29.9,10.1c-0.4-0.7-2.6-4.8-7.5-6.2c-5.6-1.7-12,1-14.8,5.8c-1.6,2.7-1.7,5.4-1.6,6.9
		c0.3,0.2,0.5,0.3,0.8,0.5c-0.1-1.1-0.1-2.8,0.6-4.9C8,10.7,8.7,9.5,9.3,8.8C9.4,9,9.6,9.1,9.9,9.3c0.3,0.2,0.6,0.3,0.8,0.4
		c-0.3,0.7-0.7,1.7-0.9,2.8c-0.4,2-0.1,3.6,0.1,4.6c0-1.1,0.1-2.6,0.7-4.3c0.4-1.1,0.8-2.1,1.2-2.8c0.8,0.2,1.8,0.4,3,0.4
		c1.4,0,2.5-0.2,3.3-0.4c0.1,0.6,0.2,1.3,0.3,2c0.1,0.9,0.2,1.8,0.2,2.6c0.1-0.7,0.2-1.5,0.3-2.3c0.1-0.9,0.1-1.8,0-2.5
		c0.5-0.1,1.2-0.3,1.9-0.7c0.7-0.3,1.2-0.6,1.7-0.9c0.4,0.4,0.8,1,1.1,1.6c0.4,0.8,0.7,1.5,0.8,2.1c0-0.5,0-1.2-0.2-2.1
		c-0.3-1-0.7-1.7-1-2.1c0.3-0.2,0.6-0.5,0.9-0.9c0.3-0.4,0.6-0.8,0.7-1.2C25,5.8,30,9.2,30.4,14c0.1,0.9,0.3,3.3-1,5.6
		c-0.2,0.3-0.4,0.5-0.5,0.7c-0.4,0.5-0.9,0.8-1.2,1c-1.7,0.1-3.4,0.2-5.2,0.3c-0.2,0.1-0.5,0.3-0.8,0.6c-0.3,0.3-0.4,0.6-0.4,0.8
		c0.8,0,1.7,0.1,2.5,0.1c0,0,0.3,0.2,0.3,0.6c0,0.4-0.4,0.6-0.4,0.6c-1.7,0.2-3.4,0.4-5.1,0.6c-0.3,0-0.7,0.1-1,0.3
		c-0.4,0.2-0.8,0.3-1,0.5c0.7,0.1,1.5,0.1,2.4,0.1c0.9,0,1.8-0.1,2.5-0.2c-0.8,0.3-2,0.5-3.5,0.5c-0.7,0-1.4-0.1-1.9-0.3
		c-0.5,0.3-0.9,0.6-1.4,0.9c0.6,0.1,1.4,0.2,2.2,0.2c1.1,0,2-0.1,2.8-0.2C19,27,18,27.3,16.8,27.3c-1,0-1.8-0.1-2.4-0.3
		c-0.2,0.2-0.4,0.4-0.6,0.6c0.9,0.4,4.9,2,9.5,0.3c0.6-0.2,5.9-2.3,7.7-8.1C32.3,14.9,30.4,10.9,29.9,10.1z M11,9.2
		c-0.4-0.3-0.9-0.6-1.3-1c0.4-0.5,1-1.1,1.9-1.7c1-0.7,1.9-1.1,2.6-1.3c-0.6,0.6-1.2,1.2-1.8,2.1C11.8,7.9,11.3,8.6,11,9.2z
		 M14.6,9.8c-1,0-1.9-0.2-2.7-0.3l3.9-5.1c0.3,0.7,0.7,1.5,1,2.3c0.4,1,0.7,1.9,1,2.8C17,9.7,15.9,9.9,14.6,9.8z M18.7,9.2
		c-0.1-0.7-0.3-1.4-0.6-2.2c-0.3-1.1-0.7-2-1.1-2.8c0.8,0.4,1.8,0.9,2.9,1.7c0.8,0.6,1.5,1.2,2,1.8C20.9,8.3,19.8,8.7,18.7,9.2z
		 M23.7,6c-0.3,0.7-0.8,1.1-1,1.2c-0.5-0.5-1.1-1.1-1.8-1.6c-1-0.7-2-1.2-2.7-1.5c0.9,0,2,0.1,3.2,0.3c1,0.2,1.8,0.5,2.5,0.8
		C23.8,5.4,23.8,5.7,23.7,6z"/>
	
		<linearGradient id="SVGID_00000091727144937296242400000018058243747905892024_" gradientUnits="userSpaceOnUse" x1="3.4052" y1="16.1746" x2="29.1791" y2="16.1746">
		<stop  offset="0" style="stop-color:#CBE14A"/>
		<stop  offset="1" style="stop-color:#72B51A"/>
	</linearGradient>
	<path style="fill:url(#SVGID_00000091727144937296242400000018058243747905892024_);" d="M6,13.1c-0.9,2.2-1,3.8-0.3,4.7
		c1.7,2.1,8.2,0.3,19.4-5.4c0.1-1.1,0.9-2,1.9-2.1c0.8-0.1,1.7,0.4,2,1.2c0.4,0.8,0.2,1.7-0.4,2.3c-0.6,0.6-1.6,0.8-2.5,0.4
		c-2.7,1.5-5.1,2.6-7,3.5c-2.3,1-4.1,1.8-6.7,2.5c-1.9,0.5-3.5,0.7-4.6,0.9c0.2,0.4,0.5,0.9,0.7,1.3H7.7L7,20.8c-0.5,0-2.1,0-3-1.1
		C2.8,18.2,3.3,15.2,6,13.1z"/>
	
		<linearGradient id="SVGID_00000163784838762456931400000001163367951790450829_" gradientUnits="userSpaceOnUse" x1="3.5407" y1="21.3985" x2="28.5212" y2="21.3985">
		<stop  offset="0" style="stop-color:#CBE14A"/>
		<stop  offset="1" style="stop-color:#72B51A"/>
	</linearGradient>
	<path style="fill:url(#SVGID_00000163784838762456931400000001163367951790450829_);" d="M3.5,21.5c0.1,0.1,0.4,0.3,0.6,0.4
		c1.4,0.8,3.9,1.6,11.7-0.8c1.7-0.5,4.1-1.3,6.8-2.5c-0.1-0.1-0.1-0.3-0.2-0.4l1.2-1.7l2.2-0.8l0.4,0.7l1.4-0.7l0.3,0.6l-1.4,0.6
		l0.5,1.4l1.3-0.6l0.3,0.6l-1.3,0.7l0.3,0.7l-1.3,0.8l-2.7,0.2l-0.3-0.5c-1.8,0.8-3.8,1.7-6.1,2.4c-2.5,0.8-4.9,1.4-7,1.8
		c0.3,0.4,0.8,0.8,1.3,1.2c0.6,0.5,1.2,0.8,1.7,1.1c-0.1,0.2-0.3,0.4-0.4,0.6c-0.6-0.3-1.2-0.7-1.8-1.2c-0.7-0.5-1.3-1.1-1.8-1.6
		c-2.6,0.4-4.8-0.3-5.5-1.8C3.6,22.4,3.5,22,3.5,21.5z"/>
	
		<linearGradient id="SVGID_00000126316370338085140480000012494252784260988593_" gradientUnits="userSpaceOnUse" x1="6.1533" y1="3.4288" x2="6.4415" y2="14.476">
		<stop  offset="0" style="stop-color:#CBE14A"/>
		<stop  offset="1" style="stop-color:#72B51A"/>
	</linearGradient>
	<path style="opacity:0.68;fill:url(#SVGID_00000126316370338085140480000012494252784260988593_);" d="M4.8,11.3
		c0.3-0.1,2-0.7,2.9-2.5C8.6,7.1,8.1,5.5,8,5.2c-0.2,0-2.2,0.3-3.2,2.1C3.7,9.2,4.7,11.2,4.8,11.3z"/>
	
		<linearGradient id="SVGID_00000040552119376490611600000016456185873914850985_" gradientUnits="userSpaceOnUse" x1="2.4223" y1="3.5262" x2="2.7105" y2="14.5733">
		<stop  offset="0" style="stop-color:#CBE14A"/>
		<stop  offset="1" style="stop-color:#72B51A"/>
	</linearGradient>
	<path style="opacity:0.68;fill:url(#SVGID_00000040552119376490611600000016456185873914850985_);" d="M4.5,14.1
		C4.6,13.8,5,12.1,4,10.3C3,8.7,1.4,8.2,1,8.1c-0.1,0.2-0.9,2,0.1,3.8C2.2,13.9,4.4,14.1,4.5,14.1z"/>
	<circle class="st5" cx="27.2" cy="12.3" r="1.2"/>
</g>
</svg>
