<?xml version="1.0" encoding="UTF-8"?>
<svg id="Layer_2" data-name="Layer 2" xmlns="http://www.w3.org/2000/svg" xmlns:xlink="http://www.w3.org/1999/xlink" viewBox="0 0 1690.76 519.71">
  <defs>
    <style>
      .cls-1 {
        fill: url(#linear-gradient-2);
      }

      .cls-2 {
        fill: #fff;
      }

      .cls-3 {
        fill: #0c6a9e;
      }

      .cls-4 {
        fill: url(#linear-gradient-4);
      }

      .cls-4, .cls-5 {
        opacity: .68;
      }

      .cls-5 {
        fill: url(#linear-gradient-5);
      }

      .cls-6 {
        fill: url(#linear-gradient-3);
      }

      .cls-7 {
        fill: url(#linear-gradient);
      }
    </style>
    <linearGradient id="linear-gradient" x1="112.22" y1="259.85" x2="634.68" y2="259.85" gradientUnits="userSpaceOnUse">
      <stop offset=".64" stop-color="#72b51a"/>
      <stop offset="1" stop-color="#0c6a9e"/>
    </linearGradient>
    <linearGradient id="linear-gradient-2" x1="57.8" y1="263.45" x2="588.92" y2="263.45" gradientUnits="userSpaceOnUse">
      <stop offset="0" stop-color="#cbe14a"/>
      <stop offset="1" stop-color="#72b51a"/>
    </linearGradient>
    <linearGradient id="linear-gradient-3" x1="60.59" y1="371.1" x2="575.36" y2="371.1" xlink:href="#linear-gradient-2"/>
    <linearGradient id="linear-gradient-4" x1="114.43" y1=".8" x2="120.37" y2="228.45" xlink:href="#linear-gradient-2"/>
    <linearGradient id="linear-gradient-5" x1="37.54" y1="2.8" x2="43.48" y2="230.45" xlink:href="#linear-gradient-2"/>
  </defs>
  <g id="Layer_1-2" data-name="Layer 1">
    <g>
      <path class="cls-7" d="m604.4,138.83c-7.22-13.71-53.77-98.82-155.07-128.67-115.95-34.18-246.48,20.88-304.19,120.09-32.18,55.32-34.08,111.19-32.56,141.65,5.46,3.26,10.93,6.53,16.39,9.79-1.82-21.76-1.99-58.25,12.2-99.97,10.71-31.44,25.85-54.92,37.61-70.28,3.03,3.32,7.06,7.16,12.21,10.89,5.81,4.2,11.35,7.02,15.84,8.91-7.18,14.77-14.9,34.57-19.47,58.73-7.6,40.19-3,74.05,1.65,95.02.07-22.82,2.74-54.14,13.86-89.41,7.47-23.69,16.92-43.34,25.73-58.73,15.48,4.46,36.79,8.89,62.35,9.24,28.06.38,51.3-4.29,67.64-8.91,2.36,13.29,4.48,27.26,6.27,41.9,2.25,18.49,3.73,36.13,4.62,52.79,2.44-14.47,4.45-30.48,5.61-47.84,1.25-18.78,1.31-36.15.66-51.8,11.19-2.85,24.36-7.09,38.6-13.52,13.61-6.15,25.05-12.9,34.31-19.14,7.32,8.42,15.72,19.58,23.42,33.65,8.84,16.13,14.02,31.1,17.16,42.89.48-10.45-.02-25.7-4.95-43.22-5.67-20.14-14.84-34.9-21.44-43.88,5.62-4.21,12.64-10.32,19.47-18.81,7.05-8.76,11.6-17.22,14.52-23.75,5.96,3.97,108.14,73.77,118.11,172.22,1.87,18.41,6.9,68.2-21.18,114.93-3.74,6.22-7.29,11.11-9.84,14.4-9.18,10.33-18.95,16.71-25.73,20.46-35.52,1.98-71.04,3.96-106.57,5.94-3.75,1.61-10.72,5.2-16.82,12.54-5.15,6.19-7.49,12.41-8.58,16.16,17.16.88,34.31,1.76,51.47,2.64.42.31,6.49,5,5.94,12.86-.58,8.27-7.93,12.05-8.25,12.21-35.09,4.07-70.17,8.14-105.25,12.2-6.09.99-13.42,2.67-21.44,5.61-8.8,3.22-16.03,7.07-21.61,10.55,15.1,1.15,31.73,1.73,49.66,1.32,19.07-.44,36.64-1.92,52.45-3.96-17.19,5.58-42.14,11.31-72.25,10.23-15.08-.54-28.41-2.68-39.6-5.28-9.73,6.27-19.47,12.54-29.2,18.81,13.35,2.25,28.81,3.96,46.03,4.29,22.19.42,41.75-1.57,57.9-4.29-13.13,5.21-33.59,11.49-59.22,12.21-20.64.58-37.85-2.64-50.06-5.94-3.93,3.98-7.86,7.97-11.79,11.96,18.28,7.76,100.44,40.28,194.82,5.2,11.44-4.26,120.88-47.13,157.7-166.94,30.52-99.3-10.37-181.31-19.14-197.95Zm-389.97-18.81c-9.24-6.6-18.48-13.2-27.71-19.8,8.65-10.54,21.14-23.61,38.27-35.96,20.22-14.59,39.58-22.89,53.77-27.71-11.9,11.46-25,25.66-37.94,42.89-10.75,14.31-19.42,28.08-26.4,40.58Zm73.24,12.87c-21.45-.49-40.03-3.48-54.93-6.93l80.66-105.24c6.92,14.66,13.79,30.29,20.46,46.85,8.17,20.31,15.15,39.85,21.11,58.4-17.35,4.02-40.31,7.55-67.3,6.93Zm85.78-12.87c-2.84-13.69-6.67-28.65-11.88-44.54-7.12-21.72-15.34-40.67-23.42-56.75,17.23,7.72,38.02,18.85,59.72,34.97,16.95,12.59,30.69,25.43,41.57,36.95-22,9.79-43.99,19.58-65.98,29.37Zm101.7-66.81c-5.83,14.13-16.33,21.92-21.2,25.07-9.34-10.35-21.73-22.29-37.61-33.82-20.73-15.04-40.58-24.43-56.09-30.36,18.29-.17,41.06,1.23,66.64,6.6,20.26,4.25,37.75,10.04,52.13,15.84-.3,4.43-1.24,10.29-3.88,16.66Z"/>
      <path class="cls-1" d="m110.32,199.45c-19.02,46.21-21.06,78.35-6.09,96.42,35.83,43.29,169.13,5.89,399.87-112.17,1.2-22.8,18.3-40.87,38.93-42.89,16.85-1.65,34.62,7.56,42.23,24.41,7.27,16.08,3.35,34.82-8.58,46.85-13.1,13.21-33.85,16.26-50.81,7.26-56.29,31.19-105.51,54.48-143.53,71.2-48.36,21.27-85.15,37.26-137.25,50.81-38.67,10.06-71.74,15.13-95.33,17.88,4.84,9.02,9.68,18.04,14.52,27.05h-17.82l-14.52-27.05c-10.22.15-44.18-.56-62.03-23.09-23.84-30.11-13.59-92.41,40.4-136.67Z"/>
      <path class="cls-6" d="m60.68,372.42c2.75,2.01,7.3,5.19,13.2,8.58,28.42,16.33,80.75,33.25,240.19-15.84,35.51-10.93,84.05-27.52,140.55-52.13-1.54-3.08-3.08-6.16-4.62-9.24l24.41-35.63,44.87-17.16,7.26,15.18,28.37-15.18,6.6,12.44-29.03,13.29,10.56,29.03,27.05-13.2,5.28,11.88-27.05,15.18,6.6,15.18-26.39,15.84-55.43,3.96-5.28-11.22c-36.36,17.01-78.01,34.13-124.71,49.49-52.18,17.17-100.71,28.88-143.85,36.95,7.17,7.94,16.32,16.89,27.71,25.73,12.86,9.99,25.2,17.22,35.63,22.43-3.08,4.4-6.16,8.8-9.24,13.2-11.54-6.42-24.32-14.43-37.61-24.41-15-11.26-27.46-22.63-37.61-32.99-53.73,7.95-99.04-6.64-112.94-36.17-2.73-5.81-5.11-14.02-4.52-25.2Z"/>
      <path class="cls-4" d="m86.41,163.91c6.56-2.14,41.26-14.18,60.05-51.47,17.89-35.49,8.73-68.78,6.6-75.88-4.14.48-44.76,5.87-65.99,43.55-22.86,40.58-2.09,81.12-.66,83.8Z"/>
      <path class="cls-5" d="m80.62,221.19c1.68-6.69,9.98-42.47-11.56-78.24-20.5-34.04-53.55-44.03-60.7-46.01-1.8,3.76-18.88,41.01,1.7,79.04,22.16,40.96,67.53,44.99,70.57,45.21Z"/>
      <circle class="cls-3" cx="548.26" cy="183" r="25.75"/>
    </g>
    <g>
      <g>
        <path class="cls-3" d="m955.44,346.8l-102.85-135.1v135.1h-74.52V40.87h74.52v134.23l101.98-134.23h87.59l-118.54,149.91,122.89,156.01h-91.08Z"/>
        <path class="cls-3" d="m1088.79,112.56c13.07-23.68,31.3-42.12,54.69-55.35,23.38-13.22,49.9-19.83,79.53-19.83,36.31,0,67.4,9.59,93.26,28.76,25.85,19.18,43.14,45.32,51.86,78.44h-81.93c-6.1-12.78-14.75-22.51-25.93-29.2-11.19-6.68-23.9-10.02-38.13-10.02-22.95,0-41.55,7.99-55.78,23.97-14.24,15.98-21.35,37.34-21.35,64.06s7.12,48.09,21.35,64.06c14.23,15.98,32.83,23.97,55.78,23.97,14.23,0,26.94-3.34,38.13-10.02,11.18-6.68,19.83-16.41,25.93-29.2h81.93c-8.72,33.12-26,59.2-51.86,78.23-25.86,19.03-56.95,28.54-93.26,28.54-29.63,0-56.15-6.6-79.53-19.83-23.39-13.22-41.62-31.59-54.69-55.13-13.07-23.53-19.61-50.4-19.61-80.62s6.54-57.16,19.61-80.84Z"/>
        <path class="cls-3" d="m1687.56,346.8h-74.52l-124.64-188.7v188.7h-74.52V40.87h74.52l124.64,189.57V40.87h74.52v305.93Z"/>
      </g>
      <g>
        <path class="cls-2" d="m784.93,480.29c-3.13-1.35-5.58-3.27-7.37-5.76-1.79-2.49-2.68-5.39-2.68-8.7h10.21c.22,2.49,1.21,4.53,2.97,6.14,1.76,1.6,4.23,2.4,7.41,2.4s5.86-.79,7.7-2.36c1.84-1.57,2.76-3.61,2.76-6.09,0-1.93-.57-3.51-1.72-4.72-1.14-1.21-2.57-2.15-4.27-2.82-1.7-.66-4.06-1.38-7.07-2.15-3.8-.99-6.88-2-9.25-3.02-2.37-1.02-4.39-2.61-6.07-4.77-1.67-2.15-2.51-5.03-2.51-8.62,0-3.32.84-6.22,2.51-8.7,1.67-2.49,4.02-4.39,7.03-5.72,3.01-1.33,6.5-1.99,10.46-1.99,5.64,0,10.25,1.4,13.85,4.19,3.6,2.79,5.59,6.62,5.99,11.48h-10.55c-.17-2.1-1.17-3.9-3.01-5.39-1.84-1.49-4.27-2.24-7.28-2.24-2.73,0-4.97.69-6.7,2.07-1.73,1.38-2.6,3.37-2.6,5.97,0,1.77.54,3.22,1.63,4.35,1.09,1.13,2.47,2.03,4.14,2.69,1.67.66,3.96,1.38,6.86,2.15,3.85,1.05,6.99,2.1,9.42,3.15,2.43,1.05,4.49,2.67,6.19,4.85,1.7,2.18,2.55,5.1,2.55,8.74,0,2.93-.8,5.69-2.39,8.29-1.59,2.6-3.91,4.68-6.95,6.26-3.04,1.58-6.63,2.36-10.76,2.36-3.91,0-7.42-.67-10.55-2.03Z"/>
        <path class="cls-2" d="m897.06,478.55c-4.55-2.51-8.15-6.02-10.8-10.53-2.65-4.5-3.98-9.57-3.98-15.21s1.33-10.69,3.98-15.17c2.65-4.48,6.25-7.97,10.8-10.49,4.55-2.51,9.53-3.77,14.94-3.77s10.48,1.26,15.03,3.77c4.55,2.52,8.13,6.01,10.76,10.49,2.62,4.48,3.93,9.53,3.93,15.17s-1.31,10.71-3.93,15.21c-2.62,4.51-6.21,8.01-10.76,10.53-4.55,2.51-9.56,3.77-15.03,3.77s-10.39-1.26-14.94-3.77Zm25.24-7.05c3.01-1.74,5.37-4.23,7.07-7.46,1.7-3.23,2.55-6.98,2.55-11.23s-.85-7.99-2.55-11.19c-1.7-3.2-4.06-5.66-7.07-7.38-3.01-1.71-6.45-2.57-10.3-2.57s-7.28.86-10.3,2.57c-3.01,1.71-5.37,4.17-7.07,7.38-1.7,3.2-2.55,6.93-2.55,11.19s.85,8,2.55,11.23c1.7,3.23,4.06,5.72,7.07,7.46,3.01,1.74,6.45,2.61,10.3,2.61s7.28-.87,10.3-2.61Z"/>
        <path class="cls-2" d="m1019.23,474.11h19.67v7.63h-29.22v-57.61h9.54v49.98Z"/>
        <path class="cls-2" d="m1114.91,424.13v36.72c0,4.37,1.16,7.65,3.47,9.86,2.32,2.21,5.54,3.32,9.67,3.32s7.44-1.11,9.75-3.32c2.32-2.21,3.47-5.5,3.47-9.86v-36.72h9.54v36.56c0,4.7-1.03,8.68-3.1,11.94-2.07,3.26-4.83,5.69-8.29,7.29-3.46,1.6-7.28,2.4-11.47,2.4s-7.99-.8-11.43-2.4c-3.43-1.6-6.15-4.03-8.16-7.29-2.01-3.26-3.01-7.24-3.01-11.94v-36.56h9.54Z"/>
        <path class="cls-2" d="m1259.4,424.13v7.71h-15.49v49.9h-9.54v-49.9h-15.57v-7.71h40.6Z"/>
        <path class="cls-2" d="m1337.16,424.13v57.61h-9.54v-57.61h9.54Z"/>
        <path class="cls-2" d="m1419.91,478.55c-4.55-2.51-8.15-6.02-10.8-10.53-2.65-4.5-3.98-9.57-3.98-15.21s1.33-10.69,3.98-15.17c2.65-4.48,6.25-7.97,10.8-10.49,4.55-2.51,9.53-3.77,14.94-3.77s10.48,1.26,15.03,3.77c4.55,2.52,8.13,6.01,10.76,10.49,2.62,4.48,3.93,9.53,3.93,15.17s-1.31,10.71-3.93,15.21c-2.62,4.51-6.21,8.01-10.76,10.53-4.55,2.51-9.56,3.77-15.03,3.77s-10.39-1.26-14.94-3.77Zm25.24-7.05c3.01-1.74,5.37-4.23,7.07-7.46,1.7-3.23,2.55-6.98,2.55-11.23s-.85-7.99-2.55-11.19c-1.7-3.2-4.06-5.66-7.07-7.38-3.01-1.71-6.45-2.57-10.3-2.57s-7.28.86-10.3,2.57c-3.01,1.71-5.37,4.17-7.07,7.38-1.7,3.2-2.55,6.93-2.55,11.19s.85,8,2.55,11.23c1.7,3.23,4.06,5.72,7.07,7.46,3.01,1.74,6.45,2.61,10.3,2.61s7.28-.87,10.3-2.61Z"/>
        <path class="cls-2" d="m1580.34,481.74h-9.54l-28.71-43.02v43.02h-9.54v-57.69h9.54l28.71,42.94v-42.94h9.54v57.69Z"/>
        <path class="cls-2" d="m1660.12,480.29c-3.13-1.35-5.58-3.27-7.37-5.76-1.79-2.49-2.68-5.39-2.68-8.7h10.21c.22,2.49,1.21,4.53,2.97,6.14,1.76,1.6,4.23,2.4,7.41,2.4s5.86-.79,7.7-2.36c1.84-1.57,2.76-3.61,2.76-6.09,0-1.93-.57-3.51-1.72-4.72-1.14-1.21-2.57-2.15-4.27-2.82-1.7-.66-4.06-1.38-7.07-2.15-3.8-.99-6.88-2-9.25-3.02-2.37-1.02-4.39-2.61-6.07-4.77-1.67-2.15-2.51-5.03-2.51-8.62,0-3.32.84-6.22,2.51-8.7,1.67-2.49,4.02-4.39,7.03-5.72,3.01-1.33,6.5-1.99,10.46-1.99,5.64,0,10.25,1.4,13.85,4.19,3.6,2.79,5.59,6.62,5.99,11.48h-10.55c-.17-2.1-1.17-3.9-3.01-5.39-1.84-1.49-4.27-2.24-7.28-2.24-2.73,0-4.97.69-6.7,2.07-1.73,1.38-2.6,3.37-2.6,5.97,0,1.77.54,3.22,1.63,4.35,1.09,1.13,2.47,2.03,4.14,2.69,1.67.66,3.96,1.38,6.86,2.15,3.85,1.05,6.99,2.1,9.42,3.15,2.43,1.05,4.49,2.67,6.19,4.85,1.7,2.18,2.55,5.1,2.55,8.74,0,2.93-.8,5.69-2.39,8.29-1.59,2.6-3.91,4.68-6.95,6.26-3.04,1.58-6.63,2.36-10.76,2.36-3.91,0-7.42-.67-10.55-2.03Z"/>
      </g>
    </g>
  </g>
</svg>